<?xml version="1.0" standalone="no"?>
<!DOCTYPE svg PUBLIC "-//W3C//DTD SVG 20010904//EN"
 "http://www.w3.org/TR/2001/REC-SVG-20010904/DTD/svg10.dtd">
<svg version="1.0" xmlns="http://www.w3.org/2000/svg"
 width="1646.000000pt" height="2048.000000pt" viewBox="0 0 1646.000000 2048.000000"
 preserveAspectRatio="xMidYMid meet">
<metadata>
Created by potrace 1.16, written by Peter Selinger 2001-2019
</metadata>
<g transform="translate(0.000000,2048.000000) scale(0.100000,-0.100000)"
fill="#000000" stroke="none">
<path d="M6097 20467 c-3 -8 -20 -21 -39 -30 -18 -9 -31 -19 -28 -23 3 -4 -8
-11 -24 -15 -16 -5 -32 -13 -36 -18 -3 -6 -36 -12 -73 -13 -37 -1 -67 -6 -67
-11 0 -4 -4 -6 -9 -3 -5 4 -11 2 -13 -4 -1 -5 -29 -11 -60 -11 -46 -1 -59 -5
-63 -20 -5 -13 -18 -19 -53 -21 -31 -2 -46 -7 -44 -15 1 -9 -13 -13 -48 -13
-38 0 -50 -4 -50 -15 0 -12 -14 -15 -65 -15 -51 0 -65 -3 -65 -15 0 -13 -36
-20 -77 -14 -3 0 -10 -6 -15 -15 -5 -9 -20 -16 -34 -16 -17 0 -28 -7 -31 -20
-4 -14 -14 -20 -34 -20 -19 0 -29 -5 -29 -15 0 -11 -11 -15 -36 -15 -21 0 -33
-4 -29 -10 6 -10 -9 -19 -42 -25 -10 -1 -17 -8 -16 -14 2 -6 -3 -11 -10 -11
-6 0 -28 -16 -47 -35 -19 -19 -42 -35 -52 -35 -10 0 -21 -7 -24 -15 -4 -8 -12
-15 -20 -15 -8 0 -14 -7 -14 -15 0 -8 -7 -15 -15 -15 -8 0 -15 -7 -15 -15 0
-8 -8 -15 -19 -15 -11 0 -21 -9 -24 -21 -3 -12 -10 -18 -16 -15 -5 4 -12 2
-16 -4 -4 -6 -11 -7 -17 -4 -7 5 -9 1 -5 -9 4 -11 1 -17 -9 -17 -8 0 -17 -7
-20 -15 -4 -8 -12 -15 -20 -15 -8 0 -14 -7 -14 -15 0 -8 -7 -15 -15 -15 -9 0
-18 -7 -21 -15 -4 -8 -12 -15 -20 -15 -8 0 -14 -6 -14 -14 0 -8 -7 -16 -15
-20 -8 -3 -15 -12 -15 -21 0 -8 -7 -15 -15 -15 -8 0 -15 -7 -15 -15 0 -8 -7
-15 -15 -15 -8 0 -15 -7 -15 -15 0 -8 -7 -15 -15 -15 -9 0 -21 -11 -27 -25 -6
-14 -15 -25 -20 -25 -4 0 -7 -3 -7 -7 4 -25 -3 -43 -16 -43 -8 0 -15 -7 -15
-15 0 -8 -7 -15 -15 -15 -8 0 -15 -7 -15 -15 0 -8 -6 -15 -14 -15 -9 0 -16
-12 -18 -32 -2 -21 -8 -33 -18 -33 -8 0 -15 -6 -15 -13 0 -8 -7 -19 -17 -26
-9 -6 -18 -23 -20 -36 -2 -14 -9 -24 -16 -22 -6 1 -11 -1 -11 -5 5 -29 -3 -63
-12 -58 -6 4 -13 -2 -16 -14 -3 -12 -12 -21 -19 -21 -9 0 -14 -11 -14 -29 0
-21 -6 -30 -21 -34 -12 -3 -18 -10 -15 -15 3 -5 -3 -17 -14 -27 -11 -10 -20
-26 -20 -35 0 -10 -7 -20 -15 -24 -8 -3 -15 -17 -15 -31 0 -16 -6 -25 -15 -25
-8 0 -15 -5 -15 -11 0 -5 -16 -25 -36 -43 -20 -19 -34 -38 -31 -44 7 -11 -36
-62 -53 -62 -5 0 -10 -9 -10 -20 0 -11 -4 -20 -9 -20 -5 0 -12 -13 -16 -30 -4
-16 -13 -30 -21 -30 -9 0 -14 -11 -14 -30 0 -16 -5 -30 -10 -30 -18 0 -59 -54
-60 -77 0 -13 -6 -23 -14 -23 -7 0 -16 -9 -19 -21 -3 -12 -10 -18 -17 -14 -6
3 -10 3 -9 -2 5 -27 -3 -53 -16 -53 -10 0 -15 -11 -15 -35 0 -27 -4 -35 -17
-35 -12 0 -18 -9 -20 -27 0 -14 -8 -30 -17 -35 -9 -5 -16 -20 -16 -32 0 -13
-7 -26 -15 -30 -10 -4 -15 -20 -15 -51 0 -33 -4 -45 -15 -45 -11 0 -15 -12
-15 -50 0 -38 -4 -50 -15 -50 -12 0 -15 -13 -15 -61 0 -46 -4 -65 -16 -74 -12
-8 -18 -32 -21 -76 -2 -35 -10 -68 -16 -74 -7 -6 -14 -41 -16 -80 -2 -42 -9
-76 -17 -86 -11 -12 -14 -48 -14 -146 0 -103 -3 -132 -14 -136 -11 -4 -14 -37
-15 -154 -1 -118 -5 -150 -16 -159 -13 -9 -15 -56 -15 -286 0 -233 -2 -277
-15 -288 -15 -13 -21 -35 -7 -26 5 3 5 -18 1 -47 -5 -38 -3 -56 7 -68 12 -13
14 -96 14 -483 0 -408 2 -466 15 -466 12 0 15 -15 15 -74 0 -53 4 -77 15 -86
8 -7 15 -25 15 -41 0 -19 5 -29 15 -29 10 0 15 -10 15 -30 0 -20 5 -30 15 -30
9 0 15 -9 15 -22 0 -30 15 -52 29 -44 10 7 16 -19 12 -53 -2 -7 2 -10 7 -7 12
7 52 -49 52 -74 0 -11 7 -23 15 -26 9 -4 15 -19 15 -35 0 -19 5 -29 15 -29 15
0 19 -10 15 -43 -1 -11 7 -21 19 -24 12 -3 21 -9 21 -14 0 -20 2 -24 16 -32 8
-4 14 -14 14 -22 0 -8 7 -18 16 -23 9 -5 17 -21 16 -35 0 -15 4 -24 9 -21 5 3
12 -2 16 -11 8 -21 51 -65 63 -65 6 0 10 -7 10 -15 0 -8 7 -15 15 -15 8 0 15
-9 15 -19 0 -11 16 -32 35 -47 19 -14 35 -31 35 -36 0 -15 53 -57 73 -58 9 0
17 -7 17 -15 0 -8 7 -15 15 -15 8 0 15 -9 15 -21 0 -12 4 -17 11 -14 6 4 13
-2 16 -14 3 -12 11 -21 18 -21 7 0 15 -7 19 -15 3 -8 12 -15 21 -15 8 0 15 -6
15 -14 0 -7 9 -16 21 -19 12 -3 18 -10 14 -16 -4 -7 5 -11 24 -11 17 0 31 -5
31 -11 0 -20 50 -59 76 -59 15 0 24 -6 24 -15 0 -8 6 -15 14 -15 8 0 16 -7 20
-15 3 -8 12 -15 20 -15 7 0 16 -7 20 -15 3 -8 17 -15 31 -15 18 0 25 -5 25
-20 0 -11 5 -20 11 -20 6 0 17 -7 25 -15 9 -8 24 -15 35 -15 10 0 19 -6 19
-14 0 -7 9 -16 21 -19 12 -3 18 -10 14 -16 -3 -7 2 -11 14 -11 12 0 21 -7 21
-15 0 -8 7 -15 15 -15 8 0 15 -9 15 -21 0 -11 5 -17 10 -14 10 6 19 -9 25 -42
1 -10 8 -17 14 -15 6 1 11 -11 11 -27 0 -37 -10 -62 -21 -55 -5 3 -6 -2 -3
-10 6 -15 -9 -20 -53 -19 -7 0 -11 -4 -10 -11 1 -6 -9 -11 -23 -11 -14 0 -24
5 -23 11 1 6 -20 12 -53 13 -37 1 -54 -1 -49 -8 3 -6 17 -11 29 -11 26 0 158
-84 202 -128 34 -34 71 -55 83 -48 5 3 11 -12 15 -34 7 -42 26 -65 26 -31 0
12 5 21 10 21 6 0 10 -11 10 -25 0 -19 5 -25 23 -25 13 0 29 6 36 13 10 10 12
9 10 -3 -4 -15 45 -70 61 -70 6 0 10 -7 10 -15 0 -8 4 -15 9 -15 8 0 26 -66
23 -83 -1 -4 3 -9 10 -11 89 -25 96 -29 105 -59 5 -21 17 -33 32 -37 25 -6 62
-50 42 -50 -6 0 -11 -6 -11 -14 0 -13 9 -19 45 -28 5 -2 10 19 12 47 4 62 16
75 38 41 13 -20 16 -37 11 -67 -5 -30 -2 -48 9 -66 9 -14 13 -32 10 -44 -5
-14 0 -28 14 -42 16 -18 20 -34 18 -90 -1 -37 0 -67 3 -67 12 0 30 25 30 42 0
10 5 18 10 18 6 0 10 -10 10 -22 0 -13 4 -29 9 -37 7 -11 11 -10 20 5 12 21
14 15 11 -36 0 -20 6 -49 14 -65 9 -17 16 -35 16 -41 0 -6 7 -17 15 -24 9 -7
15 -29 15 -54 0 -47 23 -120 34 -109 4 4 17 8 29 8 22 0 22 2 19 145 -2 80 -2
177 -2 217 1 41 -3 74 -9 78 -6 3 -11 23 -11 43 0 27 3 33 10 22 14 -23 22 -6
10 25 -6 15 -12 57 -15 94 -2 36 -9 67 -15 69 -5 2 -10 8 -10 13 0 6 4 8 8 5
11 -6 7 65 -7 124 -8 35 -7 48 4 60 13 15 14 102 1 180 -4 22 0 48 10 73 13
28 15 43 7 60 -6 12 -7 31 -3 42 4 11 4 25 0 30 -4 6 -10 35 -13 65 -6 52 0
80 18 83 12 3 12 146 0 151 -10 4 13 26 28 26 4 0 12 -12 17 -26 10 -26 30
-25 30 2 0 9 11 14 35 14 26 0 39 -6 51 -25 21 -32 41 -32 66 0 22 28 55 26
96 -6 26 -20 91 -16 105 8 9 14 73 18 79 5 2 -5 31 -15 66 -23 57 -14 62 -14
62 1 0 13 6 16 23 13 14 -3 29 2 36 11 8 9 19 16 26 16 7 0 26 7 41 15 16 8
38 15 49 15 12 0 26 5 33 12 7 7 30 11 52 10 31 -2 40 1 40 14 0 12 6 15 25
10 14 -4 25 -2 25 4 0 5 5 10 12 10 6 0 3 -9 -7 -20 -22 -25 -14 -36 13 -19
15 10 24 10 34 2 10 -9 28 -7 72 7 32 11 62 18 66 15 4 -3 10 2 14 10 6 17 26
21 26 5 0 -12 -48 -60 -60 -60 -6 0 -10 5 -10 12 0 6 -3 9 -6 6 -3 -3 0 -15 7
-26 11 -18 10 -24 -6 -42 -10 -11 -16 -22 -13 -25 3 -3 13 4 23 15 19 21 45
27 45 11 0 -5 -7 -16 -15 -25 -8 -8 -15 -18 -15 -21 0 -4 -12 -21 -26 -38 -16
-20 -24 -38 -20 -51 4 -15 -1 -26 -14 -34 -11 -7 -20 -19 -20 -28 0 -8 -14
-28 -31 -44 -36 -32 -31 -55 10 -47 35 7 55 -21 41 -58 -8 -20 -6 -27 5 -31
16 -7 10 -64 -9 -76 -6 -4 3 -8 21 -8 46 0 34 -19 -33 -55 -31 -16 -60 -36
-66 -43 -17 -20 0 -27 20 -9 10 10 30 17 45 17 14 0 30 7 35 16 6 11 11 13 16
5 10 -16 104 -14 162 4 56 17 104 19 104 5 0 -13 -38 -32 -50 -25 -6 3 -10 -1
-10 -9 0 -10 -9 -16 -25 -16 -23 0 -24 -2 -15 -20 8 -15 21 -20 52 -20 35 0
39 -2 28 -15 -10 -12 -10 -21 -2 -40 13 -29 30 -32 39 -9 5 12 7 13 14 3 5 -8
3 -17 -4 -21 -8 -5 -4 -8 11 -8 40 0 23 -19 -24 -26 -25 -3 -48 -13 -51 -21
-3 -8 -12 -12 -20 -9 -8 3 -12 2 -9 -3 4 -5 24 -7 45 -4 35 5 43 1 75 -30 25
-25 41 -34 56 -30 30 8 24 -3 -11 -21 -16 -8 -38 -13 -47 -10 -13 5 -14 4 -3
-4 17 -13 6 -32 -20 -32 -10 0 -29 -11 -40 -24 -12 -14 -28 -22 -35 -19 -11 4
-14 -5 -14 -39 0 -32 -6 -50 -25 -71 -14 -15 -32 -27 -40 -27 -8 0 -15 -4 -15
-10 0 -5 9 -10 20 -10 21 0 27 -15 10 -25 -12 -8 -2 -55 17 -73 16 -16 17 -8
-12 -66 -14 -27 -25 -57 -25 -67 0 -9 -6 -20 -12 -22 -9 -3 -3 -14 17 -32 17
-15 29 -31 27 -37 -1 -6 20 -7 55 -3 72 7 93 13 115 33 12 10 29 13 55 9 33
-5 36 -4 21 7 -18 13 -24 35 -10 37 33 6 64 3 70 -7 4 -6 24 -14 45 -17 28 -4
37 -2 37 9 0 21 18 17 30 -6 6 -12 37 -32 68 -46 31 -14 64 -29 73 -34 15 -8
129 -52 162 -64 18 -6 24 -36 6 -36 -6 0 -19 5 -30 11 -15 7 -24 7 -34 -1 -14
-12 -56 2 -54 18 3 19 -2 25 -11 12 -5 -8 -10 -10 -10 -5 0 6 -20 10 -47 9
-33 -1 -48 -6 -48 -15 0 -8 9 -14 20 -15 33 -1 75 -22 75 -39 0 -10 9 -15 27
-15 14 0 35 -7 45 -17 10 -9 18 -11 18 -5 0 6 18 1 43 -10 93 -46 95 -46 106
-35 7 7 13 2 20 -16 6 -15 15 -27 20 -27 20 0 32 -39 20 -62 -18 -35 -47 -60
-52 -45 -3 9 -7 9 -20 -1 -9 -8 -13 -20 -10 -28 5 -14 40 -33 54 -30 4 0 16
-7 26 -16 15 -13 22 -15 31 -6 14 14 23 -5 25 -54 1 -22 7 -33 17 -34 45 -1
60 -15 60 -55 0 -29 4 -39 16 -39 9 0 22 7 28 16 11 14 13 14 25 0 12 -14 10
-16 -8 -16 -27 0 -27 -21 -1 -45 11 -10 20 -23 20 -30 0 -7 12 -10 33 -8 31 4
31 4 12 -12 -20 -16 -20 -16 -1 -31 11 -8 28 -14 38 -14 10 0 18 -4 18 -10 0
-19 21 -10 29 12 6 18 9 12 15 -30 8 -64 23 -74 52 -37 l23 29 6 -26 c11 -44
75 -42 75 2 0 16 22 31 63 44 9 3 17 1 17 -4 0 -6 7 -10 15 -10 8 0 15 5 15
10 0 6 -5 10 -11 10 -21 0 2 19 31 25 17 4 36 15 44 26 12 18 14 18 26 4 12
-14 16 -13 38 12 16 18 26 24 29 16 3 -7 13 -13 24 -13 16 0 19 6 17 27 -2 16
2 28 10 29 6 1 17 2 22 3 6 0 15 12 20 26 5 14 16 25 25 25 20 0 19 17 -1 28
-20 11 -9 36 12 28 9 -3 26 7 42 25 19 21 39 32 69 36 36 5 40 8 28 19 -7 8
-18 14 -24 14 -6 0 -11 5 -11 10 0 6 11 10 25 10 14 0 28 7 31 15 4 8 11 12
17 8 6 -3 7 -1 3 5 -4 6 -13 9 -21 5 -8 -3 -15 -1 -15 3 1 12 89 56 99 49 18
-10 35 29 40 93 6 63 7 67 31 67 16 0 25 6 25 17 0 25 35 58 62 58 24 0 31 15
11 23 -22 9 9 24 62 31 26 4 53 13 60 21 7 8 19 15 27 15 10 0 11 4 3 19 -14
28 -15 28 37 34 33 3 52 11 62 26 7 12 22 21 32 21 11 0 19 5 19 11 0 5 4 7
10 4 5 -3 7 0 4 8 -5 13 1 16 51 20 15 1 24 8 22 16 -1 8 4 16 11 18 6 3 12
-2 12 -11 0 -9 5 -16 11 -16 7 0 8 11 4 29 -5 24 -2 32 14 40 17 10 19 16 11
37 -13 34 -14 34 19 34 39 0 61 9 61 26 0 8 4 14 8 14 12 0 33 -50 27 -61 -4
-5 1 -9 10 -9 9 0 14 4 11 9 -8 13 18 21 35 10 8 -5 9 -9 3 -9 -7 0 -9 -11 -6
-26 3 -17 7 -22 12 -14 11 17 30 3 30 -21 0 -13 7 -19 21 -19 15 0 19 -5 14
-19 -3 -10 1 -23 9 -30 12 -10 17 -8 26 10 l12 22 24 -29 c20 -25 21 -30 8
-41 -16 -12 -2 -29 15 -18 15 9 23 -13 12 -34 -8 -14 -7 -22 5 -32 11 -9 14
-23 11 -45 -4 -26 -2 -33 15 -37 11 -3 17 -10 13 -16 -3 -6 1 -14 10 -17 11
-5 13 -10 5 -19 -8 -9 -1 -27 25 -66 34 -52 39 -69 35 -117 -1 -12 6 -25 14
-28 17 -7 22 -34 6 -34 -11 0 -3 -54 12 -84 8 -14 7 -17 -2 -11 -25 15 0 -49
32 -81 23 -25 28 -36 20 -50 -5 -11 -6 -28 -1 -39 4 -11 8 -37 8 -58 1 -21 8
-52 17 -69 9 -16 11 -28 6 -24 -14 8 -9 -51 6 -66 6 -6 12 -19 12 -28 0 -9 4
-20 8 -26 14 -15 34 -93 27 -104 -3 -6 1 -10 9 -10 11 0 16 -9 16 -28 0 -16
11 -57 25 -91 14 -34 27 -81 29 -103 2 -25 11 -47 22 -55 15 -11 26 -49 36
-130 1 -7 9 -15 18 -18 12 -4 17 -18 19 -53 4 -74 5 -81 13 -76 14 9 8 -13 -7
-26 -21 -17 -19 -27 6 -33 15 -4 20 -11 15 -22 -3 -9 -6 -32 -6 -51 0 -26 -8
-42 -29 -62 -17 -16 -31 -40 -33 -57 -2 -23 -9 -31 -28 -33 -35 -5 -46 -18
-30 -37 11 -13 8 -15 -19 -15 -21 0 -35 -7 -46 -24 -12 -18 -29 -26 -65 -31
-43 -6 -49 -10 -53 -33 -4 -26 -4 -26 -12 -4 -7 22 -25 31 -25 12 0 -5 -16
-17 -35 -26 -43 -20 -247 -24 -312 -5 -34 9 -48 9 -65 -1 -13 -7 -48 -13 -78
-14 -73 -2 -176 -12 -203 -20 -40 -12 -106 -44 -112 -54 -3 -5 -19 -10 -35
-10 -16 0 -32 -4 -35 -10 -3 -5 1 -10 9 -10 23 0 20 -17 -3 -25 -11 -3 -23
-14 -26 -24 -3 -10 -18 -23 -32 -30 -25 -12 -29 -10 -55 21 -40 48 -86 134
-105 198 -21 70 -19 290 3 334 8 16 14 34 14 41 0 6 9 20 19 32 11 11 21 31
23 44 1 13 14 29 28 36 l25 13 -23 0 c-15 0 -26 7 -29 20 -5 17 -7 18 -27 5
-11 -8 -34 -16 -50 -19 -16 -3 -36 -11 -45 -19 -9 -8 -22 -12 -30 -9 -10 3
-12 -2 -7 -22 6 -23 3 -26 -18 -26 -13 0 -31 -3 -40 -6 -12 -4 -16 0 -17 17
-1 17 -3 19 -6 7 -2 -10 -16 -21 -29 -24 -18 -5 -23 -11 -19 -24 6 -19 -27
-30 -86 -30 -26 0 -29 -4 -29 -30 0 -19 7 -34 20 -42 11 -7 20 -19 20 -26 0
-9 -7 -11 -20 -7 -11 4 -20 2 -20 -4 0 -6 -21 -11 -50 -11 -27 0 -50 -4 -50
-9 0 -4 -11 -24 -24 -44 -21 -30 -22 -38 -10 -48 19 -16 7 -30 -20 -23 -18 4
-25 1 -28 -14 -3 -11 -2 -24 2 -29 15 -15 -1 -73 -20 -73 -12 0 -20 -11 -25
-32 -5 -23 -9 -27 -12 -15 -6 22 -22 22 -30 0 -4 -10 -11 -21 -17 -25 -8 -5
-7 -13 2 -28 15 -25 15 -47 0 -53 -8 -3 -6 -7 7 -12 52 -18 65 -26 65 -39 0
-8 -14 -17 -31 -21 -16 -4 -28 -12 -26 -18 6 -18 27 -20 27 -2 0 11 5 15 15
11 8 -3 15 -2 15 3 0 14 44 21 52 8 12 -18 10 -47 -3 -45 -6 2 -15 -6 -19 -18
-6 -16 -2 -28 17 -48 19 -20 26 -41 28 -74 1 -26 3 -50 4 -54 0 -3 12 -1 26 5
19 9 25 20 25 45 0 35 -1 35 53 23 29 -7 37 -6 37 5 0 8 5 14 11 14 6 0 8 -9
3 -22 -12 -39 -10 -53 11 -56 13 -2 24 5 30 19 12 27 29 27 33 -1 5 -29 26
-20 30 12 3 21 -2 27 -20 31 -15 3 -10 5 14 6 36 1 38 3 44 41 7 40 13 44 71
43 6 0 9 6 6 13 -6 17 13 19 23 3 4 -7 7 -20 8 -30 1 -22 6 -23 59 -15 20 4
37 11 37 17 0 19 74 -3 105 -30 17 -15 42 -32 57 -39 15 -6 34 -23 44 -37 9
-14 24 -25 34 -25 10 0 35 -7 56 -16 21 -9 51 -13 68 -11 25 4 122 -17 274
-59 7 -2 14 -2 15 -1 2 1 11 -6 21 -15 10 -10 25 -18 35 -18 9 0 22 -5 29 -12
9 -9 13 -7 18 5 8 21 34 22 34 2 0 -31 31 -63 68 -70 20 -4 45 -11 55 -16 29
-16 76 -87 70 -108 -7 -29 16 -36 37 -11 l19 21 20 -20 c12 -12 26 -21 32 -21
5 0 7 -4 4 -10 -8 -13 -45 -13 -45 0 0 21 -16 9 -18 -14 -2 -28 21 -51 40 -40
29 18 81 9 111 -18 16 -16 33 -28 38 -28 5 0 9 -7 9 -15 0 -9 -6 -12 -17 -8
-13 5 -15 2 -11 -15 4 -12 2 -24 -2 -27 -15 -9 -108 16 -114 30 -4 11 -12 12
-33 5 -50 -15 -92 -20 -98 -10 -9 15 -41 12 -55 -5 -7 -9 -20 -13 -29 -10 -9
3 -34 -4 -55 -15 -24 -12 -49 -17 -66 -13 -22 4 -31 0 -39 -16 -8 -14 -21 -21
-41 -21 -17 0 -30 -4 -30 -9 0 -16 -181 -133 -196 -127 -9 3 -14 -1 -14 -14 0
-16 -7 -20 -35 -20 -24 0 -37 -6 -45 -20 -6 -12 -21 -20 -35 -20 -13 0 -28 -8
-34 -17 -7 -14 -24 -18 -70 -19 -33 -1 -58 2 -56 6 3 5 -10 14 -28 21 -17 7
-35 14 -39 17 -5 2 -8 -3 -8 -12 0 -9 -7 -16 -15 -16 -7 0 -18 -6 -22 -14 -4
-8 -27 -28 -51 -46 -34 -24 -46 -28 -62 -20 -16 8 -21 6 -31 -12 -7 -13 -12
-24 -11 -25 4 -6 1 -19 -7 -32 -6 -10 -13 -10 -29 -2 -16 8 -21 7 -26 -4 -3
-9 -18 -15 -36 -15 -16 0 -30 -4 -30 -8 0 -5 -11 -14 -25 -20 -14 -6 -25 -17
-25 -23 0 -6 -10 -20 -21 -30 -20 -18 -21 -19 -3 -26 10 -4 19 -2 22 5 2 7 14
12 28 12 20 0 22 -3 15 -22 -4 -12 -23 -27 -41 -33 -29 -10 -33 -16 -36 -54
-4 -41 -24 -74 -41 -69 -4 2 -18 -4 -31 -13 -17 -12 -24 -30 -30 -75 -4 -35
-12 -60 -20 -60 -6 -1 -16 -2 -22 -3 -18 -2 -11 -23 15 -43 20 -15 23 -23 15
-38 -15 -28 -12 -40 11 -40 11 0 27 -7 35 -15 9 -8 11 -15 5 -15 -6 0 -11 -4
-11 -10 0 -5 11 -10 24 -10 14 0 28 -4 31 -10 3 -6 -1 -7 -9 -4 -12 5 -16 -1
-16 -25 0 -17 5 -31 11 -31 6 0 9 -8 7 -18 -3 -10 1 -23 8 -29 9 -9 10 -23 2
-55 -5 -24 -7 -56 -4 -71 4 -19 1 -30 -9 -33 -23 -9 -18 -33 9 -40 24 -6 25
-8 19 -75 -4 -43 -2 -69 4 -69 14 0 33 46 33 82 0 25 3 29 18 23 34 -15 62
-17 62 -6 0 6 9 11 20 11 16 0 19 -5 14 -29 -8 -37 7 -46 76 -46 36 0 54 -4
53 -11 -2 -9 7 -9 31 -2 29 9 36 8 55 -11 11 -11 21 -25 21 -30 0 -11 21 -19
38 -14 6 3 12 13 12 24 0 27 20 15 53 -32 l28 -40 53 6 c66 9 98 0 94 -25 -4
-23 29 -60 54 -60 22 0 23 13 3 30 -8 7 -12 16 -10 21 9 14 33 -1 39 -24 5
-21 6 -21 20 -2 14 19 15 18 23 -15 l9 -35 70 -1 c38 0 75 -3 81 -7 11 -7 88
26 98 43 8 13 95 13 95 1 0 -6 -10 -17 -22 -25 -20 -14 -20 -17 -6 -28 17 -14
34 -123 19 -132 -5 -3 -11 3 -14 14 -7 28 -37 26 -37 -3 0 -17 -10 -27 -41
-40 -42 -18 -93 -58 -57 -45 18 7 34 -17 18 -27 -6 -4 -10 -15 -10 -26 0 -14
-7 -19 -25 -19 -16 0 -25 -6 -25 -15 0 -8 -6 -16 -12 -16 -7 -1 -19 -2 -27 -3
-27 -2 -24 -26 3 -26 14 0 26 -4 26 -10 0 -5 -22 -10 -50 -10 -42 0 -50 -3
-50 -19 0 -12 -9 -21 -25 -25 -14 -4 -25 -10 -25 -15 0 -5 -16 -18 -36 -30
-43 -26 -99 -28 -112 -4 -9 15 -11 15 -26 0 -9 -9 -23 -14 -31 -11 -14 6 -55
-12 -66 -28 -3 -4 -34 7 -70 25 -64 34 -163 55 -174 37 -9 -15 -62 16 -68 40
-4 15 1 22 19 26 25 6 28 24 6 32 -7 2 -12 -3 -12 -12 0 -18 -25 -22 -35 -5
-4 6 -13 8 -21 5 -21 -8 -104 31 -104 49 0 20 -19 19 -42 -2 -11 -9 -18 -11
-18 -5 0 7 5 12 10 12 16 0 11 23 -9 48 -11 12 -26 20 -34 16 -8 -3 -18 -1
-22 5 -3 6 -15 11 -25 11 -11 0 -27 11 -36 25 -9 14 -20 25 -24 25 -3 0 -25
18 -48 39 -22 21 -58 44 -79 51 -21 7 -43 19 -50 27 -7 9 -27 17 -45 19 -18 2
-41 7 -50 10 -20 6 -24 29 -7 40 8 5 6 10 -5 16 -9 5 -16 14 -16 20 0 16 -32
37 -55 38 -11 0 -28 9 -38 20 -9 11 -23 20 -32 20 -8 0 -19 16 -25 40 -9 34
-15 40 -38 40 -15 0 -38 9 -52 20 -14 11 -31 20 -38 20 -7 0 -15 7 -18 15 -4
8 -10 12 -15 9 -5 -3 -9 4 -9 15 0 12 -6 21 -14 21 -7 0 -19 7 -26 15 -7 9
-29 15 -50 15 -21 0 -40 5 -42 11 -2 7 -19 17 -38 23 -24 8 -36 18 -38 33 -2
14 -10 23 -21 23 -22 0 -41 19 -41 42 0 10 -6 18 -14 18 -8 0 -21 8 -28 19
-22 31 -79 61 -98 51 -21 -11 -111 -13 -167 -4 -28 4 -43 3 -43 -4 0 -20 12
-42 24 -42 6 0 11 -14 12 -30 1 -23 -3 -30 -17 -30 -11 0 -19 7 -19 16 0 9 -7
14 -17 12 -19 -3 -21 -20 -9 -85 4 -24 13 -43 19 -43 7 0 29 -15 49 -34 20
-19 55 -42 78 -52 22 -10 40 -23 40 -28 0 -6 3 -21 6 -32 4 -16 0 -23 -16 -27
-31 -8 -21 -27 31 -56 89 -50 179 -112 179 -122 0 -5 8 -9 19 -9 22 0 44 -23
33 -35 -4 -5 -1 -5 5 -1 8 4 34 -13 67 -44 30 -29 60 -49 65 -45 6 3 11 -2 11
-13 0 -11 7 -22 15 -26 8 -3 15 -12 15 -21 0 -18 17 -20 23 -2 2 6 6 -1 9 -17
5 -26 4 -28 -23 -22 -16 3 -36 3 -45 -1 -12 -4 -9 -9 16 -19 31 -13 33 -34 4
-34 -8 0 -14 -4 -14 -8 0 -14 35 -42 52 -42 9 0 21 -7 28 -15 7 -8 18 -15 24
-15 10 0 36 -64 36 -89 0 -6 11 -21 25 -35 14 -15 25 -37 25 -53 1 -39 15 -54
95 -92 39 -18 80 -43 92 -55 12 -12 47 -34 77 -49 30 -15 58 -31 61 -37 3 -5
19 -7 34 -4 37 8 44 -5 45 -79 1 -50 5 -62 24 -75 12 -8 22 -22 22 -31 0 -36
45 -56 53 -23 4 16 5 16 6 0 0 -10 8 -18 16 -18 8 0 15 -6 15 -14 0 -8 11 -28
25 -44 14 -17 25 -35 25 -42 0 -6 5 -8 10 -5 6 4 18 -11 26 -32 19 -44 29 -52
56 -45 17 4 19 1 13 -17 -5 -17 -2 -24 13 -28 17 -4 19 -13 18 -58 -1 -50 12
-85 21 -58 3 9 13 6 34 -9 34 -25 36 -36 11 -54 -27 -21 -40 -16 -44 14 -3 31
-37 42 -56 19 -18 -22 -24 -114 -8 -120 19 -7 26 -75 9 -81 -11 -5 -11 -10 -1
-28 7 -13 17 -26 23 -30 5 -4 6 -10 2 -14 -4 -4 -17 2 -30 14 -25 24 -97 31
-97 11 0 -7 -7 -17 -16 -23 -9 -7 -12 -18 -8 -29 9 -25 33 -21 40 8 10 40 26
29 22 -15 -2 -22 0 -40 4 -40 5 0 8 -24 8 -53 0 -62 21 -87 75 -87 35 0 35 0
34 -42 l-2 -43 -6 35 -7 35 -7 -40 c-11 -61 -8 -113 6 -118 7 -4 6 -6 -4 -6
-25 -1 -37 20 -33 59 1 19 -1 51 -6 70 -6 28 -8 30 -9 10 -1 -14 -10 -49 -21
-78 -15 -38 -18 -58 -10 -71 5 -10 9 -31 9 -47 0 -16 3 -46 7 -66 4 -25 2 -38
-5 -38 -16 0 -14 -16 4 -34 22 -22 6 -26 -39 -11 -38 13 -56 12 -56 -3 0 -4
18 -13 41 -20 34 -11 45 -10 74 4 40 19 69 16 55 -5 -7 -12 -11 -12 -23 -2
-10 7 -18 8 -21 2 -9 -14 0 -17 79 -30 39 -7 77 -15 85 -18 8 -4 26 -7 40 -9
36 -4 288 -49 405 -73 55 -11 145 -23 200 -27 55 -3 116 -7 135 -9 266 -19
323 -17 480 15 79 16 153 22 249 20 149 -3 184 -7 198 -26 7 -10 13 -15 13
-12 0 4 14 3 31 -2 20 -6 37 -5 49 2 14 9 22 9 33 -1 21 -17 64 -4 72 22 l8
22 4 -22 c6 -31 27 -29 42 3 11 26 12 26 31 9 14 -12 20 -14 20 -5 0 10 3 10
14 1 11 -10 16 -9 23 4 5 8 23 17 41 19 18 3 39 12 48 21 15 15 17 14 28 -7
15 -30 41 -30 41 -1 0 31 19 34 23 3 4 -34 23 -70 36 -70 7 0 17 -14 23 -30
13 -35 38 -40 46 -9 3 12 10 18 16 14 6 -3 14 0 17 9 6 15 27 12 52 -7 9 -7 9
-13 1 -23 -6 -8 -7 -14 -2 -14 5 0 10 -20 10 -45 0 -25 -2 -45 -4 -45 -2 0
-13 10 -25 22 -18 18 -19 22 -6 32 13 9 13 13 2 24 -7 6 -17 12 -22 12 -14 0
-66 -59 -59 -66 16 -16 -14 -29 -57 -26 -54 5 -62 22 -10 22 21 0 33 4 29 10
-3 5 -15 10 -25 10 -14 0 -18 6 -15 21 3 16 0 19 -12 15 -31 -12 -84 5 -94 31
-5 14 -14 23 -21 21 -21 -7 -19 -25 3 -31 16 -4 20 -10 14 -24 -24 -58 2 -93
73 -97 20 -1 42 -5 47 -8 6 -3 36 -9 67 -13 l57 -7 3 33 3 33 18 -27 c15 -24
16 -31 5 -45 -11 -14 -11 -15 5 -9 11 4 31 1 45 -6 15 -8 41 -21 59 -31 20
-10 59 -17 107 -18 42 0 87 -7 101 -14 38 -20 135 0 135 28 0 13 36 45 59 53
9 3 25 18 34 35 10 16 25 30 33 30 8 0 14 9 14 19 0 10 7 21 14 24 10 4 13 1
9 -9 -4 -11 4 -14 32 -14 34 0 36 -2 24 -17 -13 -15 -12 -16 9 -11 12 4 20 2
16 -3 -3 -5 -12 -9 -20 -9 -9 0 -14 -7 -12 -17 2 -10 12 -18 23 -18 31 0 65
-24 65 -45 0 -11 6 -20 14 -20 7 0 21 -12 31 -26 9 -14 30 -30 46 -36 23 -8
29 -16 27 -32 -2 -14 9 -34 30 -54 26 -25 41 -32 72 -32 22 0 40 -5 40 -11 0
-5 4 -7 10 -4 5 3 10 15 10 26 0 16 -5 19 -22 14 -21 -5 -21 -5 2 9 27 15 42
13 35 -7 -3 -7 0 -19 5 -27 9 -13 11 -13 19 0 9 12 13 11 33 -7 15 -13 29 -18
41 -14 20 7 136 -28 162 -49 8 -7 15 -9 15 -6 0 4 10 -3 23 -14 12 -12 34 -24
49 -27 15 -3 42 -18 59 -34 30 -26 49 -33 87 -32 10 1 10 -2 1 -13 -6 -8 -7
-14 -2 -14 6 0 22 -11 38 -25 21 -20 30 -23 41 -14 19 15 18 30 -1 23 -9 -4
-15 0 -15 9 0 8 6 17 13 20 6 2 9 8 5 12 -5 5 -16 1 -26 -8 -10 -10 -25 -17
-33 -17 -11 0 -11 2 -1 8 10 7 8 12 -5 24 -10 8 -26 18 -37 22 -11 3 -16 12
-12 21 3 8 -4 21 -16 30 -20 13 -24 13 -42 -3 -18 -16 -19 -16 -13 1 7 19 -8
57 -27 69 -6 4 -11 15 -11 25 0 12 -8 18 -22 17 -13 0 -24 7 -26 18 -6 22 15
24 33 3 7 -8 16 -13 20 -10 4 2 12 -7 19 -21 6 -14 15 -23 20 -20 5 4 7 -3 4
-14 -3 -11 0 -20 6 -20 6 0 11 5 11 10 0 16 13 11 44 -16 21 -19 26 -28 17
-34 -10 -5 -7 -12 10 -24 13 -9 30 -16 39 -16 17 0 120 -99 120 -116 0 -5 14
-27 31 -47 25 -30 29 -41 20 -50 -10 -9 -12 -9 -9 1 2 8 -7 21 -19 29 -19 13
-23 13 -23 1 0 -18 36 -49 52 -43 18 6 52 -21 43 -34 -3 -7 2 -11 14 -11 11 0
28 -14 40 -33 11 -18 80 -88 153 -157 198 -185 620 -610 723 -728 172 -198
245 -287 245 -299 0 -7 4 -13 8 -13 9 0 91 -101 123 -150 9 -14 25 -34 36 -45
11 -12 37 -45 58 -75 96 -136 110 -157 132 -185 13 -16 27 -34 31 -40 4 -5 18
-28 32 -50 13 -22 30 -44 37 -48 7 -4 13 -12 13 -17 0 -6 22 -40 48 -77 27
-38 64 -95 84 -128 19 -33 79 -132 133 -220 90 -149 269 -499 301 -589 8 -22
18 -44 23 -50 5 -6 19 -38 31 -71 12 -33 25 -69 30 -80 7 -20 53 -145 70 -195
94 -270 170 -703 170 -967 0 -107 19 -233 40 -274 10 -17 22 -19 114 -19 l103
0 -2 48 c-6 132 -39 457 -85 832 -9 81 -42 270 -66 390 -9 41 -20 98 -24 125
-30 177 -53 299 -66 360 -8 39 -22 101 -29 139 -8 39 -19 84 -25 102 -6 17
-12 40 -15 50 -2 10 -15 66 -30 124 -15 58 -31 123 -36 145 -4 22 -16 65 -24
95 -9 30 -22 78 -30 105 -8 28 -30 104 -50 170 -20 66 -43 143 -50 170 -31
115 -38 135 -46 135 -5 0 -6 8 -3 18 5 14 3 14 -10 -2 -11 -13 -16 -40 -16
-82 0 -46 -4 -63 -15 -68 -9 -3 -15 -18 -15 -35 0 -16 -6 -31 -15 -35 -10 -3
-15 -19 -15 -46 0 -29 -4 -40 -15 -40 -10 0 -15 -10 -15 -27 -1 -46 -37 -64
-109 -56 -34 3 -61 10 -61 14 0 5 -11 9 -24 9 -18 0 -31 11 -50 45 -15 25 -31
45 -36 45 -5 0 -12 9 -15 20 -3 11 -12 20 -20 20 -7 0 -15 10 -17 22 -2 12
-13 28 -26 34 -12 6 -36 31 -52 55 -41 62 -56 79 -69 79 -6 0 -11 7 -11 15 0
8 -7 15 -15 15 -10 0 -15 10 -15 30 0 20 -5 30 -15 30 -8 0 -15 7 -15 15 0 9
-7 18 -15 21 -8 4 -15 14 -15 24 0 19 -43 70 -60 70 -5 0 -10 11 -10 25 0 14
-7 28 -15 31 -8 4 -15 15 -15 25 0 10 -7 19 -15 19 -9 0 -15 9 -15 25 0 14 -7
28 -15 31 -8 4 -15 12 -15 19 0 7 -6 15 -14 18 -8 3 -17 19 -21 36 -4 17 -13
31 -21 31 -8 0 -14 8 -14 19 0 10 -7 24 -15 31 -8 7 -15 19 -15 26 0 8 -7 14
-15 14 -9 0 -15 9 -15 24 0 14 -5 28 -10 31 -6 4 -17 22 -25 41 -8 19 -19 34
-24 34 -6 0 -11 7 -11 15 0 8 -7 15 -15 15 -8 0 -15 5 -15 11 0 19 -77 89 -98
89 -11 0 -22 7 -26 15 -3 8 -12 15 -21 15 -8 0 -15 4 -15 10 0 14 -105 120
-118 120 -7 0 -12 7 -12 15 0 8 -7 15 -15 15 -8 0 -15 6 -15 14 0 7 -13 16
-30 19 -18 4 -30 13 -30 22 0 8 -6 15 -14 15 -8 0 -16 7 -20 15 -3 8 -12 15
-21 15 -8 0 -15 7 -15 15 0 9 -9 15 -25 15 -14 0 -28 7 -31 15 -4 8 -12 15
-20 15 -8 0 -14 5 -14 11 0 15 -42 59 -57 59 -7 0 -13 7 -13 15 0 8 -6 15 -14
15 -7 0 -19 7 -26 15 -7 8 -21 15 -31 15 -11 0 -19 7 -19 15 0 8 -7 15 -15 15
-8 0 -15 5 -15 11 0 15 -42 59 -57 59 -7 0 -13 7 -13 15 0 8 -7 15 -15 15 -8
0 -15 7 -15 15 0 8 -7 15 -15 15 -8 0 -15 7 -15 15 0 8 -7 15 -15 15 -8 0 -15
7 -15 15 0 8 -5 15 -11 15 -6 0 -32 22 -58 50 -26 27 -55 50 -64 50 -10 0 -20
7 -23 15 -4 8 -12 15 -20 15 -8 0 -14 7 -14 16 0 9 -9 18 -20 21 -11 3 -20 11
-20 18 0 7 -7 15 -15 19 -8 3 -15 13 -15 22 0 19 -40 64 -57 64 -7 0 -13 6
-13 14 0 8 -13 17 -30 21 -16 4 -30 13 -30 21 0 8 -7 14 -15 14 -8 0 -15 7
-15 15 0 8 -7 15 -15 15 -8 0 -15 7 -15 15 0 8 -7 15 -15 15 -8 0 -15 7 -15
15 0 8 -7 15 -15 15 -8 0 -15 7 -15 16 0 9 -9 18 -20 21 -11 3 -20 12 -20 19
0 8 -7 14 -15 14 -8 0 -15 7 -15 15 0 8 -7 15 -15 15 -8 0 -15 7 -15 15 0 8
-7 15 -15 15 -8 0 -15 7 -15 15 0 8 -6 15 -14 15 -8 0 -17 13 -21 29 -3 16
-13 32 -21 35 -8 3 -14 12 -14 21 0 8 -7 15 -15 15 -8 0 -15 7 -15 15 0 8 -7
15 -15 15 -8 0 -15 7 -15 15 0 8 -7 15 -15 15 -8 0 -15 5 -15 11 0 15 -42 59
-57 59 -7 0 -13 7 -13 15 0 8 -7 15 -15 15 -10 0 -15 10 -15 30 0 20 -5 30
-15 30 -8 0 -15 6 -15 14 0 8 -13 17 -30 21 -16 4 -30 13 -30 21 0 8 -9 14
-20 14 -11 0 -20 7 -20 15 0 8 -7 15 -15 15 -8 0 -15 7 -15 15 0 8 -7 15 -15
15 -8 0 -15 7 -15 15 0 9 -9 15 -25 15 -14 0 -29 8 -35 20 -6 11 -17 20 -25
20 -8 0 -15 7 -15 15 0 10 -10 15 -30 15 -20 0 -30 5 -30 15 0 8 -7 15 -15 15
-8 0 -15 7 -15 15 0 8 -9 15 -20 15 -11 0 -20 7 -20 15 0 10 -10 15 -30 15
-23 0 -30 4 -30 20 0 11 -7 20 -15 20 -8 0 -15 7 -15 15 0 8 -6 15 -14 15 -8
0 -16 7 -20 15 -3 9 -18 15 -36 15 -20 0 -30 5 -30 15 0 8 -7 15 -15 15 -8 0
-15 7 -15 15 0 8 -7 15 -15 15 -8 0 -15 5 -15 11 0 15 -42 59 -56 59 -7 0 -14
7 -18 15 -3 8 -17 15 -31 15 -16 0 -25 6 -25 15 0 8 -7 15 -15 15 -8 0 -15 7
-15 15 0 8 -7 15 -15 15 -8 0 -15 6 -15 14 0 15 -21 26 -51 26 -10 0 -19 7
-19 15 0 8 -4 15 -10 15 -5 0 -19 9 -30 20 -11 11 -26 17 -35 14 -8 -4 -15 -1
-15 6 0 6 5 8 10 5 6 -3 10 -1 10 4 0 6 -14 11 -31 11 -24 0 -30 4 -25 15 4
10 -1 15 -14 15 -11 0 -20 7 -20 15 0 9 -12 18 -30 21 -16 4 -30 13 -30 20 0
8 -7 14 -15 14 -8 0 -15 7 -15 15 0 8 -7 15 -15 15 -8 0 -15 7 -15 15 0 8 -9
15 -20 15 -11 0 -20 7 -20 15 0 8 -7 15 -15 15 -8 0 -15 7 -15 15 0 9 -7 18
-15 21 -8 4 -15 12 -15 20 0 8 -7 14 -15 14 -8 0 -15 7 -15 15 0 8 -6 15 -14
15 -8 0 -16 7 -20 15 -3 8 -12 15 -21 15 -8 0 -15 7 -15 15 0 10 -10 15 -30
15 -16 0 -30 5 -30 11 0 20 -45 59 -68 59 -12 0 -25 7 -28 15 -4 8 -12 15 -20
15 -8 0 -14 7 -14 15 0 10 -10 15 -30 15 -20 0 -30 5 -30 15 0 8 -6 15 -14 15
-7 0 -16 9 -19 20 -3 11 -12 20 -21 20 -11 0 -16 9 -16 30 0 20 -5 30 -15 30
-12 0 -15 13 -15 60 0 45 -4 62 -15 66 -12 5 -15 26 -15 100 0 77 3 94 15 94
10 0 15 10 15 30 0 20 5 30 15 30 8 0 15 9 15 20 0 13 7 20 20 20 11 0 20 7
20 15 0 8 7 15 15 15 8 0 15 7 15 15 0 8 6 15 14 15 8 0 16 7 20 15 3 8 17 15
31 15 16 0 25 6 25 15 0 8 7 15 16 15 9 0 18 9 21 20 3 11 12 20 19 20 8 0 14
7 14 15 0 10 10 15 30 15 20 0 30 5 30 15 0 8 7 15 15 15 8 0 15 6 15 14 0 8
6 16 14 19 8 3 17 19 21 36 4 17 13 31 21 31 8 0 14 7 14 15 0 8 7 15 15 15 8
0 15 7 15 15 0 8 7 15 15 15 10 0 15 10 15 30 0 20 5 30 15 30 8 0 15 9 15 20
0 11 6 20 14 20 8 0 17 13 21 30 4 16 13 30 21 30 9 0 14 11 14 35 0 23 4 34
13 33 7 -2 13 10 15 30 2 20 9 32 18 32 9 0 14 11 14 30 0 20 5 30 15 30 10 0
15 10 15 34 0 25 5 35 20 39 16 4 20 14 20 46 0 30 4 41 15 41 10 0 15 11 15
35 0 24 5 35 15 35 10 0 15 10 15 30 0 20 5 30 15 30 10 0 15 10 15 31 0 17 7
37 15 45 8 9 15 30 15 49 0 24 5 34 20 38 14 4 20 14 20 35 0 17 6 32 15 36 9
3 15 19 15 41 0 22 6 38 15 41 8 4 15 18 15 34 0 16 7 30 15 34 9 3 15 18 15
36 0 20 5 30 15 30 11 0 15 12 15 44 0 35 4 45 20 49 15 4 20 14 20 36 0 21 5
31 15 31 10 0 15 10 15 30 0 20 5 30 15 30 11 0 15 12 15 50 0 38 4 50 15 50
10 0 15 10 15 30 0 20 5 30 15 30 10 0 15 10 15 34 0 25 5 35 20 39 16 4 20
14 20 46 0 30 4 41 15 41 10 0 15 11 15 35 0 24 5 35 15 35 11 0 15 12 15 45
0 33 4 45 15 45 10 0 15 11 15 35 0 24 5 35 15 35 11 0 15 12 15 44 0 35 4 45
20 49 15 4 20 14 20 36 0 21 5 31 15 31 10 0 15 10 15 29 0 16 6 31 15 35 11
4 15 21 15 61 0 40 4 57 15 61 9 4 15 19 15 35 0 19 5 29 15 29 12 0 15 13 15
60 0 49 3 61 20 70 15 8 20 21 20 55 0 33 4 45 15 45 11 0 15 11 15 40 0 27 5
43 15 46 11 5 15 22 15 65 0 44 4 61 15 65 11 4 15 21 15 55 0 37 4 49 15 49
12 0 15 13 15 58 0 45 4 61 20 75 15 12 20 29 20 66 0 31 5 53 15 61 10 8 15
31 15 66 0 41 4 54 15 54 12 0 15 16 15 80 0 64 3 80 15 80 11 0 15 12 15 49
0 31 5 53 15 61 11 9 15 32 15 81 0 52 3 69 14 69 19 0 26 32 26 118 0 57 3
72 15 72 12 0 15 15 15 79 0 61 3 80 15 85 13 4 15 35 15 190 0 154 2 185 15
190 13 5 15 52 15 339 0 285 -2 336 -15 347 -12 10 -15 43 -15 182 0 141 -2
170 -15 174 -12 5 -15 29 -15 130 0 102 -3 126 -15 130 -12 5 -15 27 -15 113
0 118 -6 151 -26 151 -12 0 -14 45 -14 255 0 220 -2 255 -15 255 -12 0 -15 14
-15 65 0 51 -3 65 -15 65 -12 0 -15 19 -15 115 0 96 3 115 15 115 10 0 15 10
15 30 l0 30 95 0 95 0 0 30 c0 19 5 30 14 30 8 0 17 7 20 16 3 9 6 116 6 239
0 189 2 224 15 229 10 4 15 20 15 51 0 33 4 45 15 45 11 0 15 12 15 44 0 30 5
46 15 50 9 3 15 18 15 36 0 20 5 30 15 30 10 0 15 10 15 30 0 19 5 30 14 30
15 0 26 21 26 51 0 10 7 19 15 19 10 0 15 10 15 30 0 20 5 30 15 30 8 0 15 7
15 15 0 8 7 15 15 15 10 0 15 11 15 35 0 24 5 35 15 35 8 0 15 7 15 15 0 8 6
15 14 15 14 0 26 29 26 66 0 12 7 24 15 28 10 4 15 20 15 50 0 30 5 46 15 50
13 5 15 45 15 275 0 259 -3 306 -20 296 -4 -2 -8 30 -9 73 -2 98 -6 118 -20
114 -7 -1 -12 19 -12 55 -1 32 -3 65 -4 73 -1 8 -3 21 -4 28 0 6 -6 11 -13 10
-6 -2 -14 6 -16 17 -2 11 -16 33 -29 49 -21 25 -23 32 -11 40 11 9 16 29 9 39
-2 1 -4 15 -6 30 -2 16 -11 39 -19 52 -8 12 -13 31 -10 42 3 11 -3 26 -15 37
-12 11 -21 25 -21 33 0 18 25 44 34 36 8 -8 8 40 0 61 -3 9 -9 14 -13 11 -5
-2 -9 26 -11 63 -1 37 -3 72 -3 79 0 7 -6 14 -14 17 -9 4 -13 24 -13 62 0 47
-3 57 -20 61 -17 5 -20 14 -20 69 0 50 -3 64 -15 64 -12 0 -15 14 -15 64 0 48
-4 65 -15 70 -12 4 -15 28 -15 126 0 100 -2 120 -15 120 -12 0 -15 15 -15 79
0 61 -3 80 -15 85 -10 4 -15 20 -15 51 0 33 -5 50 -20 62 -15 13 -20 30 -20
65 0 36 -4 48 -15 48 -10 0 -15 10 -15 30 0 20 -5 30 -15 30 -11 0 -15 12 -15
50 0 38 -4 50 -15 50 -10 0 -15 10 -15 30 0 20 -5 30 -15 30 -10 0 -15 10 -15
30 0 17 -9 39 -20 50 -11 11 -20 33 -20 50 0 20 -5 30 -15 30 -8 0 -15 9 -15
20 0 11 -7 20 -15 20 -10 0 -15 10 -15 30 0 20 -5 30 -15 30 -8 0 -15 7 -15
15 0 8 -7 15 -15 15 -8 0 -15 7 -15 15 0 8 -9 15 -20 15 -16 0 -20 7 -20 35 0
24 -5 35 -15 35 -8 0 -15 7 -15 15 0 8 -7 15 -15 15 -8 0 -15 7 -15 15 0 8 -7
15 -15 15 -8 0 -15 7 -15 15 0 8 -7 15 -15 15 -8 0 -15 7 -15 16 0 9 -9 18
-20 21 -11 3 -20 12 -20 19 0 8 -7 14 -15 14 -8 0 -15 7 -15 15 0 8 -7 15 -15
15 -8 0 -15 7 -15 15 0 8 -7 15 -15 15 -8 0 -15 7 -15 15 0 8 -6 15 -13 15 -7
0 -20 9 -30 20 -9 11 -26 20 -37 20 -11 0 -20 7 -20 15 0 8 -7 15 -15 15 -8 0
-15 7 -15 15 0 8 -7 15 -15 15 -8 0 -15 7 -15 15 0 8 -7 15 -15 15 -8 0 -15 7
-15 15 0 8 -9 15 -20 15 -13 0 -20 7 -20 20 0 11 -7 20 -15 20 -8 0 -15 7 -15
15 0 8 -7 15 -15 15 -8 0 -15 7 -15 15 0 8 -7 15 -15 15 -8 0 -15 7 -15 15 0
8 -7 15 -15 15 -8 0 -15 7 -15 15 0 8 -9 15 -20 15 -13 0 -20 7 -20 20 0 11
-7 20 -15 20 -8 0 -15 7 -15 15 0 8 -7 15 -15 15 -8 0 -15 7 -15 15 0 8 -7 15
-15 15 -8 0 -15 7 -15 15 0 8 -7 15 -15 15 -8 0 -15 7 -15 15 0 8 -9 15 -20
15 -11 0 -20 7 -20 15 0 9 -7 18 -15 21 -8 4 -15 12 -15 20 0 8 -7 14 -15 14
-8 0 -15 7 -15 15 0 8 -7 15 -15 15 -8 0 -15 7 -15 15 0 8 -9 15 -20 15 -11 0
-20 7 -20 15 0 10 -10 15 -30 15 -23 0 -30 4 -30 20 0 11 -7 20 -15 20 -8 0
-15 7 -15 15 0 8 -7 15 -15 15 -8 0 -15 7 -15 15 0 8 -9 15 -20 15 -11 0 -20
7 -20 15 0 10 -10 15 -30 15 -20 0 -30 5 -30 15 0 8 -7 15 -15 15 -8 0 -15 6
-15 13 0 15 -44 57 -59 57 -6 0 -11 7 -11 15 0 10 -10 15 -30 15 -20 0 -30 5
-30 15 0 8 -7 15 -15 15 -8 0 -15 7 -15 15 0 8 -7 15 -15 15 -8 0 -15 6 -15
13 0 15 -44 57 -59 57 -6 0 -11 7 -11 15 0 8 -7 15 -15 15 -8 0 -15 7 -15 15
0 8 -6 15 -14 15 -8 0 -16 7 -20 15 -3 8 -16 15 -30 15 -15 0 -25 7 -29 20 -3
11 -12 20 -21 20 -9 0 -16 7 -16 15 0 8 -7 15 -15 15 -8 0 -15 7 -15 15 0 8
-7 15 -15 15 -8 0 -15 7 -15 15 0 8 -7 15 -15 15 -9 0 -15 9 -15 25 l0 25
-2254 0 c-1864 0 -2255 -2 -2259 -13z m1781 -7296 c15 -1 22 -7 22 -20 0 -11
6 -22 13 -24 6 -3 1 -6 -13 -6 -14 -1 -57 -10 -95 -21 -38 -11 -80 -20 -93
-20 -24 0 -56 -23 -46 -33 6 -6 -60 -27 -83 -27 -7 0 -13 -7 -13 -15 0 -8 -6
-12 -14 -9 -8 3 -17 1 -21 -5 -3 -6 -15 -11 -26 -11 -10 0 -19 -4 -19 -10 0
-5 -7 -7 -15 -4 -8 3 -26 -6 -40 -20 -14 -14 -38 -32 -53 -40 -15 -8 -37 -23
-50 -34 -13 -12 -30 -18 -37 -16 -7 3 -21 -6 -30 -20 -10 -14 -25 -26 -35 -26
-9 0 -27 -9 -40 -20 -13 -11 -29 -20 -37 -20 -7 0 -13 -4 -13 -10 0 -5 -6 -10
-13 -10 -8 0 -22 -9 -32 -20 -38 -42 -70 -8 -43 44 13 26 115 126 128 126 5 0
14 9 20 19 5 11 19 23 31 26 11 4 33 19 47 35 33 34 176 110 206 110 13 0 31
9 41 20 10 11 26 20 37 20 10 0 26 4 36 9 61 30 148 41 280 32z m-252 -558
c14 -29 37 -67 51 -83 l25 -30 -29 4 c-49 7 -73 18 -73 32 0 13 -13 19 -34 15
-4 -1 -17 1 -27 4 -15 5 -19 16 -19 54 0 26 3 51 6 54 4 3 22 6 41 5 31 -1 36
-6 59 -55z m2789 -2932 c3 -5 1 -12 -5 -16 -5 -3 -10 -15 -10 -26 0 -13 -7
-19 -22 -20 l-23 -2 23 -4 c29 -6 28 -17 -3 -31 -20 -9 -24 -17 -21 -37 5 -28
-9 -42 -27 -27 -7 6 -23 12 -37 14 -14 2 -24 9 -22 16 1 7 4 36 5 65 3 43 7
54 28 64 28 15 105 17 114 4z m-1165 -1105 c5 -14 18 -30 29 -35 27 -15 36
-14 22 3 -9 10 -8 16 4 26 13 11 15 9 15 -13 0 -14 5 -29 11 -32 5 -4 14 -18
19 -31 8 -21 13 -23 36 -13 27 10 42 1 45 -26 0 -5 4 -2 8 9 6 15 10 11 23
-23 17 -42 17 -42 -7 -53 -18 -8 -35 -7 -69 3 -48 14 -56 23 -31 36 9 5 11 13
6 22 -6 9 -14 11 -26 3 -20 -10 -55 -5 -55 9 0 5 13 12 29 15 23 5 28 10 23
26 -5 21 -5 21 -21 0 -18 -23 -68 -45 -81 -37 -5 3 -12 21 -16 40 -3 19 -10
32 -15 29 -5 -3 -9 2 -9 10 0 9 8 17 18 17 16 1 16 2 0 6 -30 8 -19 33 14 33
10 0 23 -11 28 -24z m1957 -3076 c3 -8 7 -28 8 -43 3 -33 10 -41 25 -32 7 4 9
18 5 35 -5 25 -4 28 13 23 12 -3 28 3 41 16 18 18 24 19 41 9 11 -7 20 -15 20
-18 -1 -10 -45 -37 -72 -44 -31 -7 -29 -24 4 -45 19 -12 23 -11 34 4 13 17 14
17 20 1 7 -19 -21 -46 -46 -45 -31 2 -41 -1 -34 -13 4 -7 3 -8 -5 -4 -6 4 -9
12 -6 17 10 14 -22 11 -38 -5 -11 -12 -15 -11 -27 7 -7 12 -12 39 -12 61 1 21
-2 44 -7 50 -6 7 -3 24 6 46 13 29 17 32 20 15 2 -11 7 -27 10 -35z"/>
<path d="M4285 13380 c-62 -29 -130 -99 -134 -138 -1 -19 -11 -48 -22 -66 -14
-24 -19 -54 -21 -117 -1 -47 2 -91 6 -98 4 -6 2 -18 -4 -26 -7 -8 -8 -20 -4
-27 5 -7 9 -24 10 -38 1 -14 7 -52 13 -85 6 -33 13 -80 15 -105 4 -50 19 -95
36 -105 5 -3 16 -21 24 -39 7 -17 20 -39 28 -47 20 -19 48 -74 48 -92 0 -19
33 -47 56 -47 18 -1 18 -1 2 -14 -22 -16 -23 -36 -4 -36 8 0 18 -9 21 -20 4
-13 15 -20 31 -20 14 0 23 4 19 10 -3 5 1 26 10 46 13 32 15 71 10 248 -5 170
-4 220 8 256 8 25 17 76 21 114 3 40 12 76 21 86 8 9 15 23 15 31 1 20 45 68
74 78 13 6 43 10 66 9 22 0 43 2 46 5 5 5 -15 37 -66 106 -14 18 -60 60 -104
92 -72 55 -82 59 -130 58 -28 0 -69 -9 -91 -19z"/>
<path d="M5010 12637 c-35 -18 -54 -21 -85 -15 -57 10 -75 2 -75 -33 0 -17 -5
-29 -13 -29 -16 0 -67 -52 -67 -68 0 -7 -7 -12 -16 -12 -20 0 -47 -27 -39 -40
3 -5 3 -16 -2 -22 -4 -7 -8 -20 -8 -28 -2 -39 -19 -92 -31 -97 -18 -7 -18 -27
1 -43 8 -7 15 -27 15 -44 0 -18 5 -37 12 -44 9 -9 8 -16 -5 -30 -9 -10 -17
-24 -17 -30 0 -7 -7 -12 -15 -12 -23 0 -13 -92 14 -126 11 -15 21 -36 21 -46
0 -11 9 -22 20 -25 11 -3 20 -11 20 -18 0 -7 11 -16 25 -19 14 -4 25 -14 25
-22 0 -12 3 -14 13 -6 16 14 41 -5 52 -38 4 -14 16 -31 26 -38 11 -7 19 -21
19 -31 0 -23 29 -49 38 -35 4 6 15 13 25 17 9 3 17 13 17 20 0 23 85 9 154
-24 33 -16 65 -29 73 -29 7 0 13 -4 13 -10 0 -5 5 -10 10 -10 7 0 7 6 1 18 -6
11 -6 24 0 35 7 11 6 24 -1 38 -9 16 -8 24 6 40 15 17 15 19 1 25 -9 3 -20 3
-25 1 -4 -3 -13 3 -19 13 -10 15 -9 19 8 23 10 3 22 -1 27 -9 8 -13 52 -9 52
6 0 4 11 5 25 2 18 -3 25 0 25 11 0 8 6 20 14 27 8 6 12 18 9 26 -3 8 1 14 11
14 10 0 16 -8 16 -21 0 -12 5 -19 13 -16 22 7 14 135 -13 190 -26 55 -24 117
6 179 21 44 13 80 -21 102 l-26 17 7 -47 c5 -36 3 -45 -8 -42 -15 5 -49 66
-67 121 -7 20 -17 37 -22 37 -5 0 -9 6 -9 13 0 7 -22 41 -50 75 -27 34 -50 64
-50 66 0 12 -57 66 -70 65 -8 0 -35 -10 -60 -22z m170 -407 c11 0 20 -7 20
-15 0 -8 8 -15 18 -14 10 0 12 3 5 6 -17 6 -16 20 2 27 28 10 41 -4 41 -44 0
-27 -4 -40 -13 -40 -7 0 -13 -11 -13 -24 0 -15 -7 -27 -18 -30 -9 -3 -22 -16
-27 -28 -8 -18 -20 -24 -50 -26 -22 -2 -45 -10 -51 -18 -10 -12 -14 -11 -28
11 -9 14 -22 24 -29 22 -20 -4 -10 95 12 113 10 8 21 23 24 33 4 9 17 21 31
27 13 5 27 14 31 21 6 8 10 7 17 -5 5 -9 18 -16 28 -16z"/>
<path d="M5432 11230 c-12 -5 -38 -25 -57 -44 -31 -31 -35 -42 -35 -85 0 -41
5 -54 29 -79 31 -30 110 -62 156 -62 56 0 136 65 126 104 -1 4 6 14 16 21 16
12 17 15 2 32 -9 10 -20 28 -23 41 -4 12 -15 22 -26 22 -10 0 -20 3 -22 8 -5
12 -71 41 -108 46 -19 3 -45 1 -58 -4z"/>
<path d="M3461 5169 c-80 -15 -199 -60 -225 -84 -14 -13 -43 -32 -64 -41 -20
-10 -44 -22 -52 -29 -8 -6 -37 -17 -65 -24 -27 -7 -59 -21 -70 -31 -11 -10
-38 -22 -60 -25 -22 -4 -60 -18 -85 -32 -25 -14 -76 -36 -115 -50 -38 -14 -77
-31 -85 -37 -20 -16 -69 -37 -100 -43 -14 -2 -29 -8 -35 -14 -5 -5 -17 -9 -27
-9 -9 0 -21 -6 -25 -13 -7 -12 -109 -64 -170 -88 -13 -5 -23 -13 -23 -18 0 -5
-16 -12 -35 -15 -19 -4 -35 -11 -35 -16 0 -6 -5 -10 -12 -10 -12 0 -46 -21
-211 -127 -53 -35 -100 -63 -103 -63 -2 0 -28 -16 -57 -35 -28 -19 -60 -35
-70 -35 -10 0 -20 -7 -23 -15 -4 -8 -17 -15 -30 -15 -14 0 -27 -7 -30 -15 -4
-9 -19 -15 -41 -15 -27 0 -34 -3 -29 -15 4 -11 -2 -15 -25 -15 -17 0 -32 -6
-35 -15 -4 -8 -17 -15 -30 -15 -12 0 -27 -7 -32 -16 -5 -9 -21 -16 -35 -16
-17 0 -29 -7 -32 -19 -4 -13 -16 -19 -36 -19 -19 0 -29 -5 -29 -15 0 -8 -5
-15 -11 -15 -7 0 -17 -7 -23 -16 -6 -8 -19 -16 -28 -17 -9 -2 -23 -9 -32 -16
-9 -8 -27 -13 -41 -13 -15 0 -25 -6 -25 -14 0 -8 -7 -14 -15 -14 -8 0 -24 -9
-35 -20 -11 -11 -27 -20 -35 -20 -8 0 -15 -7 -15 -15 0 -10 -10 -15 -30 -15
-19 0 -30 -5 -30 -14 0 -9 -12 -16 -32 -18 -37 -4 -51 -28 -16 -28 13 0 28 4
34 9 5 5 42 19 83 30 66 18 96 33 111 53 13 17 173 107 226 127 33 12 72 29
87 37 16 8 39 14 52 14 13 0 36 5 52 11 15 6 78 11 140 10 117 -1 215 -18 290
-52 24 -10 45 -19 48 -19 4 0 27 -16 52 -35 25 -19 53 -35 63 -35 9 0 26 -13
38 -30 13 -16 27 -30 33 -30 17 0 89 -62 89 -76 0 -8 14 -20 30 -29 17 -9 30
-20 30 -26 0 -6 10 -9 23 -7 18 2 22 -1 20 -24 -1 -19 11 -39 43 -73 24 -26
44 -53 44 -61 0 -8 4 -14 9 -14 5 0 14 -12 20 -27 15 -39 75 -110 88 -106 5 2
13 -17 17 -43 3 -26 14 -54 23 -63 30 -27 65 -111 58 -140 -3 -17 2 -36 15
-56 11 -16 24 -37 29 -45 17 -26 39 -83 47 -120 3 -19 14 -50 24 -70 10 -19
21 -68 24 -109 5 -63 25 -122 47 -141 3 -3 11 -39 18 -80 14 -84 29 -136 48
-165 7 -11 13 -42 13 -70 0 -27 5 -66 10 -85 18 -61 42 -239 34 -252 -3 -5 2
-22 10 -40 9 -17 16 -39 16 -48 0 -10 6 -23 14 -29 13 -11 19 -55 32 -239 3
-40 9 -85 14 -98 6 -14 10 -55 11 -92 0 -37 5 -94 10 -127 5 -33 12 -73 14
-90 21 -149 42 -236 94 -395 34 -102 64 -192 68 -200 28 -68 115 -439 133
-575 6 -38 15 -91 22 -117 l12 -48 1267 0 1267 0 4 24 c3 13 2 30 -2 38 -8 13
-12 48 -25 183 -3 39 -14 122 -25 185 -17 104 -37 241 -60 405 -4 33 -16 94
-25 135 -10 41 -21 102 -25 135 -5 33 -15 92 -24 130 -9 39 -22 102 -30 140
-34 167 -39 191 -47 200 -5 5 -9 24 -9 43 0 44 -87 350 -128 452 -6 14 -32 93
-58 175 -26 83 -60 186 -76 231 -15 44 -28 85 -28 90 0 17 -50 167 -59 178 -5
6 -13 29 -17 51 -4 22 -27 82 -51 133 -23 50 -43 100 -43 109 0 9 -6 24 -14
32 -7 9 -28 50 -45 91 -45 102 -61 135 -98 203 -18 33 -33 67 -33 77 0 11 -4
21 -9 25 -5 3 -32 49 -59 103 -73 145 -135 260 -176 327 -20 33 -36 64 -36 69
0 5 -15 32 -34 60 -41 62 -94 155 -102 179 -4 9 -10 17 -13 17 -4 0 -25 32
-46 70 -21 39 -42 70 -47 70 -4 0 -8 5 -8 11 0 6 -11 25 -25 43 -14 18 -25 36
-25 40 0 25 -213 257 -324 354 -49 42 -97 84 -105 92 -20 18 -110 80 -117 80
-3 0 -22 13 -42 30 -53 42 -206 117 -282 139 -80 23 -171 31 -229 20z"/>
<path d="M15934 1322 c-11 -7 22 -195 46 -266 6 -16 10 -39 10 -50 0 -12 11
-38 25 -58 14 -20 25 -49 25 -63 0 -15 7 -33 15 -41 8 -9 15 -24 15 -34 0 -10
10 -24 23 -32 12 -9 30 -38 40 -66 10 -28 25 -56 34 -63 8 -7 21 -26 28 -43
l14 -31 -2 35 c-1 19 -10 43 -19 52 -10 10 -15 25 -11 33 4 11 -1 18 -16 22
-17 4 -21 13 -21 49 0 30 -5 46 -15 50 -9 4 -15 19 -15 35 0 19 -5 29 -15 29
-11 0 -15 12 -15 45 0 31 -5 47 -15 51 -9 4 -15 19 -15 35 0 19 -5 29 -15 29
-10 0 -15 11 -15 35 0 23 -7 41 -20 52 -14 12 -20 30 -20 60 0 31 -4 43 -14
43 -11 0 -16 14 -18 50 -2 33 -7 47 -14 42z"/>
</g>
</svg>
